# xmcd
#
# Track frame offsets: 
#        150
#        18334
#        42068
#        59345
#        77833
#        96446
#        107817
#        131961
#        167999
#        187508
#        208417
#        227731
#        243243
#        251216
#        272231
#        290149
#
# Disc length: 4178 seconds
#
# Revision: 1
# Processed by: cddbd v1.5.2PL0 Copyright (c) Steve Scherf et al.
# Submitted via: ExactAudioCopyFreeDBPlugin 1.0
#
DISCID=ef105010
DTITLE=Bunbury - Archivos Volumen 1 - Tributos y BSOs - Disco 2
DYEAR=2016
DGENRE=Blues
TTITLE0=Hada chalada
TTITLE1=Papel de regalo
TTITLE2=Eres bellísima
TTITLE3=Vámonos
TTITLE4=Annabel Lee
TTITLE5=Una décima de segundo
TTITLE6=Como una mujer
TTITLE7=El botón del pánico
TTITLE8=Come Together
TTITLE9=Nada
TTITLE10=Necesito
TTITLE11=Requiem para un cabrón
TTITLE12=Tabú
TTITLE13=El tiempo se va
TTITLE14=Un caballo llamado muerte
TTITLE15=El jinete
EXTD=
EXTT0=
EXTT1=
EXTT2=
EXTT3=
EXTT4=
EXTT5=
EXTT6=
EXTT7=
EXTT8=
EXTT9=
EXTT10=
EXTT11=
EXTT12=
EXTT13=
EXTT14=
EXTT15=
PLAYORDER=
